<svg width="1830" height="340" viewBox="0 0 1830 340" fill="none" xmlns="http://www.w3.org/2000/svg">
<path d="M185.413 207.011C184.955 190.505 178.983 174.866 168.43 162.701C182.201 147.062 190 127.078 190 104.492C190 53.2306 149.608 15.0064 92.6849 10.6605L5.47061 11.094V339.5H72.0308V197.885H108.294C114.261 197.885 118.853 202.231 118.853 207.444L119.769 339.5H185.871L185.413 207.011ZM81.6678 134.897H72.4889V73.2151H81.6678C88.5563 73.2151 123.44 74.9545 123.44 104.492C123.44 132.73 91.7687 134.897 81.6678 134.897Z" fill="black" fill-opacity="0.4"/>
<path d="M179.943 196.85C179.485 180.344 173.512 164.706 162.959 152.541C176.73 136.902 184.529 116.917 184.529 94.3318C184.529 43.07 144.137 4.84587 87.2143 0.5L0 0.933504V329.339H66.5602V187.725H102.824C108.79 187.725 113.383 192.071 113.383 197.283L114.299 329.339H180.401L179.943 196.85ZM76.1972 124.737H67.0183V63.0546H76.1972C83.0857 63.0546 117.969 64.794 117.969 94.3318C117.969 122.569 86.2981 124.737 76.1972 124.737Z" fill="black"/>
<path d="M395 11.094L210.484 10.6605V339.5H395V276.512H277.205V197.885H353.127V134.897H277.205V73.6486H395V11.094Z" fill="black" fill-opacity="0.4"/>
<path d="M389.516 0.933504L205 0.5V329.339H389.516V266.351H271.721V187.725H347.643V124.737H271.721V63.4881H389.516V0.933504Z" fill="black"/>
<path d="M524.523 0.5H410V329.326H524.523C563.535 329.326 595.001 296.268 595.001 256.253V73.5738C595.001 33.1195 563.535 0.5 524.523 0.5ZM534.591 256.253C534.591 261.906 529.976 266.258 524.523 266.258H470.828V63.1347H524.523C529.976 63.1347 534.591 67.9201 534.591 73.5738V256.253Z" fill="black"/>
<path d="M529.523 10.6735H414.999V339.5H529.523C568.534 339.5 600 306.441 600 266.426V83.7473C600 43.293 568.534 10.6735 529.523 10.6735ZM539.591 266.426C539.591 272.08 534.975 276.431 529.523 276.431H475.827V73.3082H529.523C534.975 73.3082 539.591 78.0937 539.591 83.7473V266.426Z" fill="black" fill-opacity="0.4"/>
<path d="M620 10.6605V266.52C620 306.922 651.884 339.5 690.477 339.5H734.523C773.534 339.5 805 306.922 805 266.52V10.6605H744.591V266.52C744.591 272.172 739.975 276.512 734.523 276.512H690.477C685.024 276.512 680.827 272.172 680.827 266.52V10.6605H620Z" fill="black"/>
<path d="M617.5 256.359V3H673.328V256.359C673.328 263.31 678.563 268.851 685.477 268.851H729.523C736.299 268.851 742.091 263.448 742.091 256.359V3H797.5V256.359C797.5 295.464 767.073 326.84 729.523 326.84H685.477C648.337 326.84 617.5 295.454 617.5 256.359Z" fill="url(#paint0_linear_3_93)" stroke="black" stroke-width="5"/>
<path d="M1007.29 13.7946L1002.78 12.0706H939.132L917.915 73.6419L896.248 12.0706H825.379L848.854 74.0715L883.156 172.24L825.379 338H894.44L917.915 270.832L941.384 338H1010L952.217 172.24L1007.29 13.7946Z" fill="black"/>
<path d="M1001.1 325.429H937.779L914.896 259.937L912.536 253.183L910.176 259.937L887.286 325.429H823.519L880.138 162.992L880.425 162.168L880.137 161.345L845.835 63.1763L845.824 63.1459L845.813 63.1158L823.62 4.5H889.098L910.177 64.4012L912.56 71.1731L914.899 64.3858L935.535 4.5H996.935L998.754 5.19446L944.477 161.348L944.191 162.17L944.477 162.992L1001.1 325.429Z" fill="url(#paint1_linear_3_93)" stroke="black" stroke-width="5"/>
<path d="M1215 10.6735H1107.59C1064.9 10.6735 1030.47 43.293 1030.47 83.3132V266.426C1030.47 306.875 1064.9 339.5 1107.59 339.5H1215V276.431H1107.59C1101.62 276.431 1097.03 272.08 1097.03 266.426V83.3132C1097.03 78.0937 1101.62 73.3082 1107.59 73.3082H1215V10.6735Z" fill="black" fill-opacity="0.4"/>
<path d="M1209.53 0.5H1102.12C1059.43 0.5 1025 33.1195 1025 73.1397V256.253C1025 296.702 1059.43 329.326 1102.12 329.326H1209.53V266.258H1102.12C1096.15 266.258 1091.56 261.906 1091.56 256.253V73.1397C1091.56 67.9201 1096.15 63.1346 1102.12 63.1346H1209.53V0.5Z" fill="black"/>
<path d="M1349.52 10.2035H1305.48C1266.88 10.2035 1235 42.9247 1235 83.4928V266.711C1235 307.284 1266.88 340 1305.48 340H1349.52C1388.53 340 1420 307.284 1420 266.711V83.4928C1420 42.9247 1388.53 10.2035 1349.52 10.2035ZM1359.59 266.711C1359.59 272.386 1354.98 276.745 1349.52 276.745H1305.48C1300.02 276.745 1295.83 272.386 1295.83 266.711V83.4928C1295.83 77.8225 1300.02 73.0229 1305.48 73.0229H1349.52C1354.98 73.0229 1359.59 77.8225 1359.59 83.4928V266.711Z" fill="black" fill-opacity="0.4"/>
<path d="M1344.52 0H1300.48C1261.88 0 1230 32.7212 1230 73.2893V256.507C1230 297.081 1261.88 329.796 1300.48 329.796H1344.52C1383.53 329.796 1415 297.081 1415 256.507V73.2893C1415 32.7212 1383.53 0 1344.52 0ZM1354.59 256.507C1354.59 262.183 1349.98 266.542 1344.52 266.542H1300.48C1295.02 266.542 1290.83 262.183 1290.83 256.507V73.2893C1290.83 67.619 1295.02 62.8194 1300.48 62.8194H1344.52C1349.98 62.8194 1354.59 67.619 1354.59 73.2893V256.507Z" fill="black"/>
<path d="M1620.41 207.12C1619.96 190.565 1613.98 174.881 1603.43 162.679C1617.2 146.995 1625 126.951 1625 104.299C1625 52.886 1584.61 14.5491 1527.68 10.1904L1440.47 10.6252V340H1507.03V197.967H1543.29C1549.26 197.967 1553.85 202.326 1553.85 207.554L1554.77 340H1620.87L1620.41 207.12ZM1516.67 134.794H1507.49V72.9295H1516.67C1523.56 72.9295 1558.44 74.6741 1558.44 104.299C1558.44 132.62 1526.77 134.794 1516.67 134.794Z" fill="black" fill-opacity="0.4"/>
<path d="M1614.94 196.929C1614.48 180.375 1608.51 164.69 1597.96 152.489C1611.73 136.804 1619.53 116.761 1619.53 94.1086C1619.53 42.6956 1579.14 4.35869 1522.21 0L1435 0.434782V329.81H1501.56V187.777H1537.82C1543.79 187.777 1548.38 192.136 1548.38 197.364L1549.3 329.81H1615.4L1614.94 196.929ZM1511.2 124.603H1502.02V62.7391H1511.2C1518.09 62.7391 1552.97 64.4836 1552.97 94.1086C1552.97 122.429 1521.3 124.603 1511.2 124.603Z" fill="black"/>
<path d="M1721.67 197.967C1784.56 197.967 1830 158.756 1830 104.299C1830 52.886 1789.61 14.5491 1732.68 10.1904H1645.47V340H1712.03V197.967H1721.67ZM1712.49 72.9295H1721.67C1728.56 72.9295 1763.44 74.6741 1763.44 104.299C1763.44 132.62 1731.77 134.794 1721.67 134.794H1712.49V72.9295Z" fill="black" fill-opacity="0.4"/>
<path d="M1716.2 187.777C1779.09 187.777 1824.53 148.565 1824.53 94.1086C1824.53 42.6956 1784.14 4.35869 1727.21 0H1640V329.81H1706.56V187.777H1716.2ZM1707.02 62.7391H1716.2C1723.09 62.7391 1757.97 64.4836 1757.97 94.1086C1757.97 122.429 1726.3 124.603 1716.2 124.603H1707.02V62.7391Z" fill="black"/>
<defs>
<linearGradient id="paint0_linear_3_93" x1="707.5" y1="0.5" x2="707.5" y2="329.34" gradientUnits="userSpaceOnUse">
<stop stop-color="#FF0000"/>
<stop offset="0.9999" stop-color="#B20000" stop-opacity="0.697917"/>
<stop offset="1" stop-opacity="0"/>
</linearGradient>
<linearGradient id="paint1_linear_3_93" x1="912.31" y1="2" x2="912.31" y2="327.929" gradientUnits="userSpaceOnUse">
<stop stop-color="#FF2323"/>
<stop offset="0.9999" stop-color="#9A1515" stop-opacity="0.908958"/>
<stop offset="1" stop-opacity="0.77"/>
</linearGradient>
</defs>
</svg>
