<svg width="130" height="130" viewBox="0 0 130 130" fill="none" xmlns="http://www.w3.org/2000/svg">
<rect width="130" height="130" rx="65" fill="#FF0000"/>
<path d="M44 15L45.6205 19.3795L50 21L45.6205 22.6205L44 27L42.3795 22.6205L38 21L42.3795 19.3795L44 15Z" fill="white"/>
<path d="M32 22L33.6205 26.3795L38 28L33.6205 29.6205L32 34L30.3795 29.6205L26 28L30.3795 26.3795L32 22Z" fill="white"/>
<path d="M22 33L23.6205 37.3795L28 39L23.6205 40.6205L22 45L20.3795 40.6205L16 39L20.3795 37.3795L22 33Z" fill="white"/>
<path d="M60.446 34L56.4119 19.4545H58.7202L61.554 30.7188H61.6889L64.6364 19.4545H66.9233L69.8707 30.7259H70.0057L72.8324 19.4545H75.1477L71.1065 34H68.8977L65.8366 23.1051H65.723L62.6619 34H60.446ZM77.1488 34V19.4545H86.2681V21.3438H79.3434V25.7756H85.7923V27.6577H79.3434V32.1108H86.3533V34H77.1488Z" fill="white"/>
<path d="M67.8267 53H65.4972L70.7315 38.4545H73.267L78.5014 53H76.1719L72.0597 41.0966H71.946L67.8267 53ZM68.2173 47.304H75.7741V49.1506H68.2173V47.304ZM80.6019 53V38.4545H85.7866C86.9135 38.4545 87.8486 38.6487 88.592 39.0369C89.3401 39.4252 89.8988 39.9626 90.2681 40.6491C90.6374 41.331 90.8221 42.1193 90.8221 43.0142C90.8221 43.9044 90.6351 44.688 90.261 45.3651C89.8917 46.0374 89.333 46.5606 88.5849 46.9347C87.8415 47.3087 86.9064 47.4957 85.7795 47.4957H81.8519V45.6065H85.5806C86.2908 45.6065 86.8685 45.5047 87.3136 45.3011C87.7634 45.0975 88.0924 44.8016 88.3008 44.4134C88.5091 44.0251 88.6133 43.5587 88.6133 43.0142C88.6133 42.465 88.5067 41.9891 88.2937 41.5866C88.0853 41.1842 87.7563 40.8764 87.3065 40.6634C86.8614 40.4455 86.2766 40.3366 85.5522 40.3366H82.7965V53H80.6019ZM87.7823 46.4375L91.3761 53H88.8761L85.3533 46.4375H87.7823ZM93.4925 53V38.4545H102.612V40.3438H95.6871V44.7756H102.136V46.6577H95.6871V51.1108H102.697V53H93.4925Z" fill="white"/>
<path d="M43.598 72V57.4545H45.7926V63.7756H53.044V57.4545H55.2457V72H53.044V65.6577H45.7926V72H43.598ZM58.4418 72V57.4545H67.5611V59.3438H60.6364V63.7756H67.0852V65.6577H60.6364V70.1108H67.6463V72H58.4418ZM70.4925 72V57.4545H75.6772C76.8041 57.4545 77.7392 57.6487 78.4826 58.0369C79.2307 58.4252 79.7894 58.9626 80.1587 59.6491C80.5281 60.331 80.7127 61.1193 80.7127 62.0142C80.7127 62.9044 80.5257 63.688 80.1516 64.3651C79.7823 65.0374 79.2236 65.5606 78.4755 65.9347C77.7321 66.3087 76.797 66.4957 75.6701 66.4957H71.7425V64.6065H75.4712C76.1815 64.6065 76.7591 64.5047 77.2042 64.3011C77.654 64.0975 77.9831 63.8016 78.1914 63.4134C78.3997 63.0251 78.5039 62.5587 78.5039 62.0142C78.5039 61.465 78.3974 60.9891 78.1843 60.5866C77.976 60.1842 77.6469 59.8764 77.1971 59.6634C76.752 59.4455 76.1673 59.3366 75.4428 59.3366H72.6871V72H70.4925ZM77.6729 65.4375L81.2667 72H78.7667L75.244 65.4375H77.6729ZM83.3832 72V57.4545H92.5025V59.3438H85.5778V63.7756H92.0266V65.6577H85.5778V70.1108H92.5877V72H83.3832Z" fill="white"/>
<path d="M65.8807 78.3438V76.4545H77.1378V78.3438H72.5994V91H70.4119V78.3438H65.8807ZM91.6353 83.7273C91.6353 85.2803 91.3512 86.6155 90.783 87.733C90.2148 88.8456 89.436 89.7027 88.4464 90.304C87.4615 90.9006 86.3417 91.1989 85.087 91.1989C83.8275 91.1989 82.703 90.9006 81.7134 90.304C80.7286 89.7027 79.9521 88.8433 79.3839 87.7259C78.8157 86.6084 78.5316 85.2756 78.5316 83.7273C78.5316 82.1742 78.8157 80.8414 79.3839 79.7287C79.9521 78.6113 80.7286 77.7543 81.7134 77.1577C82.703 76.5563 83.8275 76.2557 85.087 76.2557C86.3417 76.2557 87.4615 76.5563 88.4464 77.1577C89.436 77.7543 90.2148 78.6113 90.783 79.7287C91.3512 80.8414 91.6353 82.1742 91.6353 83.7273ZM89.462 83.7273C89.462 82.5436 89.2702 81.5469 88.8867 80.7372C88.5079 79.9228 87.9871 79.3073 87.3242 78.8906C86.6661 78.4692 85.9203 78.2585 85.087 78.2585C84.2489 78.2585 83.5008 78.4692 82.8427 78.8906C82.1845 79.3073 81.6637 79.9228 81.2802 80.7372C80.9014 81.5469 80.712 82.5436 80.712 83.7273C80.712 84.911 80.9014 85.91 81.2802 86.7244C81.6637 87.5341 82.1845 88.1496 82.8427 88.571C83.5008 88.9877 84.2489 89.196 85.087 89.196C85.9203 89.196 86.6661 88.9877 87.3242 88.571C87.9871 88.1496 88.5079 87.5341 88.8867 86.7244C89.2702 85.91 89.462 84.911 89.462 83.7273Z" fill="white"/>
<path d="M43.598 110V95.4545H45.7926V101.776H53.044V95.4545H55.2457V110H53.044V103.658H45.7926V110H43.598ZM58.4418 110V95.4545H67.5611V97.3438H60.6364V101.776H67.0852V103.658H60.6364V108.111H67.6463V110H58.4418ZM70.4925 110V95.4545H72.6871V108.111H79.2781V110H70.4925ZM81.7816 110V95.4545H86.9663C88.0979 95.4545 89.0354 95.6605 89.7788 96.0724C90.5221 96.4844 91.0785 97.0478 91.4478 97.7628C91.8171 98.473 92.0018 99.2732 92.0018 100.163C92.0018 101.058 91.8147 101.863 91.4407 102.578C91.0714 103.288 90.5127 103.852 89.7646 104.268C89.0212 104.68 88.0861 104.886 86.9592 104.886H83.3938V103.026H86.7603C87.4753 103.026 88.0553 102.902 88.5004 102.656C88.9454 102.405 89.2721 102.064 89.4805 101.634C89.6888 101.203 89.793 100.713 89.793 100.163C89.793 99.6141 89.6888 99.1264 89.4805 98.7003C89.2721 98.2741 88.9431 97.9403 88.4933 97.6989C88.0482 97.4574 87.4611 97.3366 86.7319 97.3366H83.9762V110H81.7816ZM97.0817 95.4545L96.897 105.817H94.9297L94.745 95.4545H97.0817ZM95.9169 110.135C95.5239 110.135 95.1877 109.998 94.9084 109.723C94.629 109.444 94.4917 109.107 94.4964 108.714C94.4917 108.326 94.629 107.995 94.9084 107.72C95.1877 107.441 95.5239 107.301 95.9169 107.301C96.3004 107.301 96.6319 107.441 96.9112 107.72C97.1906 107.995 97.3326 108.326 97.3374 108.714C97.3326 108.975 97.264 109.214 97.1314 109.432C97.0036 109.645 96.8331 109.815 96.62 109.943C96.407 110.071 96.1726 110.135 95.9169 110.135Z" fill="white"/>
</svg>
